<svg width="892" height="572" viewBox="0 0 892 572" fill="none" xmlns="http://www.w3.org/2000/svg">
<g filter="url(#filter0_d_376_6000)">
<mask id="mask0_376_6000" style="mask-type:alpha" maskUnits="userSpaceOnUse" x="67" y="23" width="389" height="474">
<path d="M67.3853 23.907L455.581 100.814L349.376 496.334L67.3853 430.414V23.907Z" fill="#D9D9D9"/>
</mask>
<g mask="url(#mask0_376_6000)">
<path d="M72.1967 265.667C71.507 265.667 71.0471 265.207 71.0471 264.518V101.964C71.0471 101.274 71.507 100.814 72.1967 100.814H97.373C97.9478 100.814 98.4077 101.159 98.7526 101.619L168.648 224.626C169.223 225.546 170.028 225.431 170.028 224.282V101.964C170.028 101.274 170.488 100.814 171.178 100.814H192.905C193.595 100.814 194.055 101.274 194.055 101.964V264.518C194.055 265.207 193.595 265.667 192.905 265.667H167.729C167.154 265.667 166.694 265.322 166.349 264.863L96.4534 142.545C95.8785 141.625 95.0738 141.74 95.0738 142.89V264.518C95.0738 265.207 94.614 265.667 93.9242 265.667H72.1967Z" fill="white"/>
<path d="M271.653 267.967C236.935 267.967 214.977 244.515 214.977 207.957C214.977 171.285 238.314 147.833 272.113 147.833C303.842 147.833 326.029 168.871 326.144 207.153L325.914 213.82C325.914 214.625 325.454 214.97 324.765 214.97H238.429C237.74 214.97 237.165 215.43 237.28 216.234C240.039 237.847 253.144 249.573 271.883 249.573C284.873 249.573 295.565 244.055 301.083 229.8C301.313 229.225 301.772 228.88 302.347 228.88H322.695C323.5 228.88 323.96 229.455 323.73 230.374C316.487 257.045 296.484 267.967 271.653 267.967ZM237.969 194.967C237.855 195.771 238.199 196.231 239.004 196.231H302.462C303.152 196.231 303.727 195.771 303.612 194.967C301.083 176.573 289.242 166.112 272.458 166.112C254.064 166.112 241.763 177.033 237.969 194.967Z" fill="white"/>
<path d="M396.96 267.967C362.127 267.967 339.594 244.4 339.594 207.727C339.594 171.285 362.127 147.833 396.96 147.833C431.678 147.833 454.095 171.285 454.095 207.727C454.095 244.4 431.678 267.967 396.96 267.967ZM396.96 248.653C417.767 248.653 431.333 232.559 431.333 207.727C431.333 183.126 417.767 167.146 396.96 167.146C376.037 167.146 362.472 183.126 362.472 207.727C362.472 232.559 376.037 248.653 396.96 248.653Z" fill="white"/>
</g>
<mask id="mask1_376_6000" style="mask-type:alpha" maskUnits="userSpaceOnUse" x="349" y="272" width="543" height="280">
<path d="M407.972 276.6L891.385 272.938L840.114 551.267L349.376 499.996L407.972 276.6Z" fill="#D9D9D9"/>
</mask>
<g mask="url(#mask1_376_6000)">
<path d="M415.626 469.29C371.596 469.29 342.052 434.342 342.052 383.875C342.052 333.522 371.596 298.574 415.626 298.574C451.149 298.574 478.969 321.681 484.717 355.48C484.832 356.284 484.373 356.744 483.683 356.744H461.265C460.576 356.744 460.116 356.399 460.001 355.709C455.058 334.097 437.584 320.762 415.626 320.762C385.392 320.762 365.848 345.593 365.848 383.875C365.848 422.157 385.392 447.103 415.626 447.103C437.584 447.103 455.058 433.768 460.116 411.925C460.231 411.235 460.691 410.89 461.38 410.89H483.568C484.258 410.89 484.717 411.35 484.602 412.155C478.854 446.068 451.149 469.29 415.626 469.29Z" fill="white"/>
<path d="M548.635 468.601C518.861 468.601 500.237 455.15 500.237 432.848C500.237 411.35 516.676 396.865 543.577 396.865H583.353C584.043 396.865 584.503 396.405 584.503 395.716V389.623C584.503 374.908 574.961 366.746 556.453 366.746C540.818 366.746 531.046 373.069 527.942 385.484C527.827 386.174 527.368 386.519 526.678 386.519H505.985C505.295 386.519 504.835 386.059 504.95 385.254C508.859 362.147 526.908 348.467 556.338 348.467C587.377 348.467 606.92 363.987 606.92 391.577V442.505C606.92 446.068 608.645 447.908 612.208 447.908H617.497C618.186 447.908 618.646 448.368 618.646 449.057V465.152C618.646 465.841 618.186 466.301 617.497 466.301H603.356C594.16 466.301 588.412 463.197 586.227 456.3C585.997 455.38 585.538 455.15 585.193 455.61C577.375 464.347 565.305 468.601 548.635 468.601ZM550.82 450.207C573.007 450.207 584.963 439.286 584.963 419.283V416.753C584.963 416.064 584.503 415.604 583.813 415.604H545.416C531.506 415.604 523.344 421.812 523.344 432.273C523.344 443.309 532.886 450.207 550.82 450.207Z" fill="white"/>
<path d="M677.621 468.601C650.145 468.601 629.222 457.449 624.969 430.779C624.854 429.974 625.314 429.514 626.004 429.514H646.007C646.696 429.514 647.156 429.859 647.271 430.549C650.835 446.298 663.481 451.127 677.851 451.127C697.279 451.127 705.556 442.734 705.556 432.618C705.556 418.248 689.002 417.903 671.873 417.098C650.26 415.949 626.578 410.775 626.578 384.565C626.578 363.412 643.707 348.467 674.862 348.467C700.498 348.467 721.995 358.813 725.214 385.254C725.329 386.059 724.755 386.519 724.065 386.519H704.177C703.487 386.519 703.142 386.174 702.912 385.484C699.923 370.654 688.657 366.056 674.977 366.056C658.997 366.056 648.076 372.494 648.076 383.415C648.076 395.486 661.986 397.44 678.885 398.245C699.233 399.05 727.169 401.004 727.169 431.238C727.169 454.575 710.729 468.601 677.621 468.601Z" fill="white"/>
<path d="M780.855 466.301C765.565 466.301 757.633 458.829 757.633 443.079V369.965C757.633 369.275 757.173 368.815 756.484 368.815H734.986C734.296 368.815 733.836 368.355 733.836 367.665V351.916C733.836 351.226 734.296 350.766 734.986 350.766H747.057C754.644 350.766 758.783 346.513 758.783 339.04V317.428C758.783 316.738 759.243 316.278 759.932 316.278H779.591C780.28 316.278 780.74 316.738 780.74 317.428V349.617C780.74 350.306 781.2 350.766 781.89 350.766H803.387C804.077 350.766 804.537 351.226 804.537 351.916V367.665C804.537 368.355 804.077 368.815 803.387 368.815H781.89C781.2 368.815 780.74 369.275 780.74 369.965V437.331C780.74 444.344 782.924 446.413 789.937 446.413H803.387C804.077 446.413 804.537 446.873 804.537 447.563V465.152C804.537 465.841 804.077 466.301 803.387 466.301H780.855Z" fill="white"/>
</g>
<g filter="url(#filter1_d_376_6000)">
<path d="M462.905 71.5161L349.376 499.996" stroke="white" stroke-width="3.66222"/>
</g>
</g>
<defs>
<filter id="filter0_d_376_6000" x="7.62939e-06" y="7.62939e-06" width="875.584" height="571.512" filterUnits="userSpaceOnUse" color-interpolation-filters="sRGB">
<feFlood flood-opacity="0" result="BackgroundImageFix"/>
<feColorMatrix in="SourceAlpha" type="matrix" values="0 0 0 0 0 0 0 0 0 0 0 0 0 0 0 0 0 0 127 0" result="hardAlpha"/>
<feOffset/>
<feGaussianBlur stdDeviation="35.5236"/>
<feComposite in2="hardAlpha" operator="out"/>
<feColorMatrix type="matrix" values="0 0 0 0 1 0 0 0 0 1 0 0 0 0 1 0 0 0 0.5 0"/>
<feBlend mode="normal" in2="BackgroundImageFix" result="effect1_dropShadow_376_6000"/>
<feBlend mode="normal" in="SourceGraphic" in2="effect1_dropShadow_376_6000" result="shape"/>
</filter>
<filter id="filter1_d_376_6000" x="318.308" y="41.7493" width="175.665" height="488.014" filterUnits="userSpaceOnUse" color-interpolation-filters="sRGB">
<feFlood flood-opacity="0" result="BackgroundImageFix"/>
<feColorMatrix in="SourceAlpha" type="matrix" values="0 0 0 0 0 0 0 0 0 0 0 0 0 0 0 0 0 0 127 0" result="hardAlpha"/>
<feOffset/>
<feGaussianBlur stdDeviation="14.6489"/>
<feComposite in2="hardAlpha" operator="out"/>
<feColorMatrix type="matrix" values="0 0 0 0 1 0 0 0 0 1 0 0 0 0 1 0 0 0 1 0"/>
<feBlend mode="normal" in2="BackgroundImageFix" result="effect1_dropShadow_376_6000"/>
<feBlend mode="normal" in="SourceGraphic" in2="effect1_dropShadow_376_6000" result="shape"/>
</filter>
</defs>
</svg>
